# xmcd
#
# Track frame offsets:
#	150
#	22476
#	52014
#	71551
#	92018
#	111307
#	128861
#	154448
#	172934
#	191930
#
# Disc length: 2960 seconds
#
# Revision: 1
# Processed by: cddbd v1.5.2PL0 Copyright (c) Steve Scherf et al.
# Submitted via: EZCDAudioConverter 8.0.2.1
#
DISCID=960b8e0a
DTITLE=Various Artist - Còn Nhớ Không Em
DYEAR=2012
DGENRE=Indie - Alternative
TTITLE0=Quốc Khanh, Thiên Kim - Còn Nhớ Không Em
TTITLE1=Thủy Tiên, Diễm Liên, Philip Huy - Người về từ lòng đất, Nơi ấy bình y
TTITLE1=ên, Trống vắng
TTITLE2=Lưu Đức Long - Nghiệt ngã
TTITLE3=Nguyên Khang - Em về nào có hay
TTITLE4=Y Phương - Cô đơn
TTITLE5=Đoàn Phi - Rồi mai tôi đưa em
TTITLE6=Hồ Hoàng Yến, Lê Anh Quân - Riêng một góc trời
TTITLE7=Lâm Thúy Vân - Đoạn khúc cuối cho em
TTITLE8=Mai Thanh Sơn - Đã xa rồi
TTITLE9=Lệ Thu, Hoàng Anh Thư - Nước mắt mùa thu, Mùa thu chết
EXTD=
EXTT0=
EXTT1=
EXTT2=
EXTT3=
EXTT4=
EXTT5=
EXTT6=
EXTT7=
EXTT8=
EXTT9=
PLAYORDER=
